<svg xmlns="http://www.w3.org/2000/svg" xmlns:xlink="http://www.w3.org/1999/xlink" id="Layer_1" width="32" height="32" x="0" y="0" enable-background="new 0 0 32 32" version="1.1" viewBox="0 0 32 32" xml:space="preserve"><g><path fill="#828282" d="M16,32c8.822,0,16-7.178,16-16S24.822,0,16,0S0,7.178,0,16S7.178,32,16,32z M16,1c8.271,0,15,6.729,15,15 s-6.729,15-15,15S1,24.271,1,16S7.729,1,16,1z"/><path fill="#828282" d="M20.061,21.768c0.098,0.098,0.226,0.146,0.354,0.146s0.256-0.049,0.354-0.146 c0.195-0.195,0.195-0.512,0-0.707L16,16.293V9.319c0-0.276-0.224-0.5-0.5-0.5S15,9.043,15,9.319V16.5 c0,0.133,0.053,0.26,0.146,0.354L20.061,21.768z"/><circle cx="4" cy="16" r="1" fill="#828282"/><circle cx="28" cy="16" r="1" fill="#828282"/><circle cx="16" cy="4" r="1" fill="#828282"/><circle cx="16" cy="28" r="1" fill="#828282"/><circle cx="8" cy="8" r="1" fill="#828282"/><circle cx="24" cy="24" r="1" fill="#828282"/><circle cx="25" cy="8" r="1" fill="#828282"/><circle cx="8" cy="24" r="1" fill="#828282"/></g></svg>